PathFileType	4	(X/Y/Z)	D:\TRACE\spot_10-12-23\spot_arm_body_motion_1_8-platform.trc
DataRate	CameraRate	NumFrames	NumMarkers	Units	OrigDataRate	OrigDataStartFrame	OrigNumFrames
100.00	100.00	      48	5	mm	100.00	3501	      7000
Frame#	Time	Left_Front			Right_Front			Left_Aft			Right_Aft			Post			
		X1	Y1	Z1	X2	Y2	Z2	X3	Y3	Z3	X4	Y4	Z4	X5	Y5	Z5	

3501	35.000	-827.38293	44.85518	-643.35577	739.88306	41.53580	-618.92474	-758.75824	-10.43793	493.91605	648.06201	-16.74114	595.62396	-39.90337	787.27972	-917.79272	
3502	35.010	-826.96338	44.53536	-643.42834	740.33759	41.54728	-619.11395	-758.22302	-10.31275	493.90408	648.57928	-16.69429	595.81610	-39.41886	787.03455	-917.84601	
3503	35.020	-826.51208	44.15958	-643.50476	740.81287	41.39456	-619.21606	-757.82666	-10.23265	494.00540	649.02277	-16.69452	595.75439	-12.78758	801.73059	-933.81482	
3504	35.030	-826.16870	43.99986	-643.57990	741.23151	41.03677	-619.11914	-757.20483	-10.14331	493.93329	649.51495	-16.52783	595.80389	-38.26908	786.25623	-918.12085	
3505	35.040	-825.67206	44.09867	-643.66132	741.78979	40.71513	-619.14374	-756.80981	-9.97817	493.85703	650.02008	-16.19102	595.79456	-37.89725	786.03284	-918.22662	
3506	35.050	-824.95935	43.86371	-643.74646	742.28009	40.67361	-619.16309	-756.33405	-9.67482	493.82938	650.51898	-16.06690	595.56555	-37.36356	785.86938	-918.41620	
3507	35.060	-824.57520	43.74539	-643.72034	742.88623	40.78617	-619.33759	-755.68347	-9.43505	493.77579	650.96478	-15.91943	595.48981	-36.76352	785.54309	-918.89856	
3508	35.070	-823.95660	43.27499	-643.77588	743.28931	40.33142	-619.46887	-755.17542	-9.34581	493.82040	651.49359	-15.78515	595.50836	-36.46719	785.28210	-919.40125	
3509	35.080	-823.44421	43.00429	-643.85974	743.83997	40.05599	-619.53888	-754.82892	-9.21949	493.76096	652.01349	-15.71741	595.21161	-35.99449	784.95544	-919.85913	
3510	35.090	-822.96417	42.85390	-643.92615	744.38385	39.85956	-619.49054	-754.25110	-9.14985	493.70520	652.60913	-15.55581	595.56567	-35.20424	784.60516	-920.42902	
3511	35.100	-822.36560	42.80324	-643.96857	745.04553	39.95484	-619.55145	-753.47351	-8.97390	493.68484	653.36505	-15.13428	595.56311	-34.47441	784.27893	-921.02014	
3512	35.110	-821.87891	42.70438	-644.10828	745.74725	39.74456	-619.59271	-752.87726	-8.85329	493.60117	653.83289	-15.15061	595.36407	-34.05044	784.10260	-921.38135	
3513	35.120	-821.28223	42.36289	-644.21307	746.31213	39.43401	-619.64709	-752.52423	-8.86532	493.43961	654.48218	-14.89244	595.42627	-33.56125	783.84119	-921.81671	
3514	35.130	-820.56586	42.04479	-644.12585	746.82343	39.29473	-619.67969	-751.88947	-8.66096	493.35349	655.05212	-14.85388	595.28717	-32.71979	783.41913	-922.08496	
3515	35.140	-819.73889	41.76065	-644.19482	747.50214	39.19902	-619.70959	-751.13696	-8.49019	493.42578	655.38403	-14.73087	595.13916	-32.21183	783.16821	-922.12158	
3516	35.150	-819.36578	41.85707	-644.32898	748.11218	39.04587	-619.73242	-750.59662	-8.25997	493.41190	656.38019	-14.25006	595.38025	-35.61467	804.90820	-928.29218	
3517	35.160	-818.80145	41.64236	-644.47083	748.88324	38.70554	-619.85333	-749.98712	-7.99715	493.43527	657.08923	-13.95033	595.34827	-30.83859	782.34174	-922.35870	
3518	35.170	-818.16492	41.36463	-644.55334	749.52771	38.29623	-619.95752	-749.33295	-7.88417	493.32706	657.55463	-13.98977	595.03497	-30.22784	781.89270	-922.68188	
3519	35.180	-817.39484	40.84182	-644.41119	750.03143	37.99615	-620.05835	-748.55090	-7.74834	493.30972	658.24384	-13.90774	595.02740	-29.55174	781.38013	-922.81000	
3520	35.190	-816.58911	40.28040	-644.44794	750.72198	37.62810	-620.21100	-747.87659	-7.58220	493.29102	658.77972	-13.55279	595.08521	-29.02334	781.05573	-922.97394	
3521	35.200	-815.93597	40.11255	-644.61304	751.47131	37.39688	-620.24817	-747.23517	-7.26449	493.25467	659.60181	-13.16339	595.06903	-28.37064	780.76245	-923.28906	
3522	35.210	-815.28632	40.03973	-644.63550	752.22906	37.36362	-620.29608	-746.57031	-7.05662	492.99625	660.35504	-12.83503	594.99762	-27.37127	780.38116	-923.82117	
3523	35.220	-814.64771	39.77051	-644.74646	752.84381	37.20262	-620.40399	-745.84619	-6.88645	493.00186	660.84491	-12.86381	594.72034	-26.76040	780.01868	-924.43353	
3524	35.230	-813.87219	39.36148	-644.82349	753.52118	36.82021	-620.44080	-745.15546	-6.85959	492.84949	661.60718	-12.79791	594.61334	-26.27939	779.66510	-924.99237	
3525	35.240	-813.10992	39.05883	-644.77899	754.29761	36.42387	-620.46136	-744.61151	-6.61444	492.86981	662.29102	-12.60297	594.82208	-25.52124	779.33545	-925.44501	
3526	35.250	-812.47266	38.86762	-644.84070	755.17731	36.26138	-620.45660	-743.65161	-6.51360	492.83694	663.12079	-12.24173	594.77966	-24.66357	778.98193	-925.92395	
3527	35.260	-811.64520	38.64576	-645.09796	755.95496	36.10597	-620.48175	-742.98608	-6.30198	492.79706	663.93756	-11.98162	594.42566	-23.77844	778.52625	-926.52191	
3528	35.270	-810.98822	38.59050	-645.21008	756.45703	35.53773	-620.62531	-742.18030	-5.96303	492.72357	664.77893	-11.79925	594.24506	-23.01738	778.10181	-926.96686	
3529	35.280	-809.92548	37.94889	-645.19275	757.26978	35.27124	-620.74866	-741.45129	-5.78522	492.62949	665.58423	-11.46621	594.49518	-22.16475	777.65356	-927.32391	
3530	35.290	-809.26135	37.61214	-645.22021	758.20911	35.06230	-620.82092	-740.56250	-5.58289	492.50116	666.19531	-11.28869	594.49377	-21.33391	777.09644	-927.66522	
3531	35.300	-808.58118	37.26238	-645.45331	758.99371	34.67067	-620.92175	-739.74762	-5.37899	492.40536	667.04877	-10.91209	594.49829	-20.68330	776.46082	-928.00537	
3532	35.310	-807.76508	37.00129	-645.65430	759.69312	34.34806	-620.99994	-739.05811	-5.17429	492.32117	667.84625	-10.70550	594.10529	-20.00959	776.01166	-928.35364	
3533	35.320	-806.86853	36.70993	-645.61572	760.42004	33.81744	-621.09100	-738.05280	-4.84980	492.35175	668.63409	-10.26718	594.26996	-19.09068	775.54315	-928.87793	
3534	35.330	-806.04425	36.31163	-645.62146	761.32349	33.57588	-621.07648	-737.48053	-4.63575	492.28470	669.51648	-9.96497	594.28986	-18.52485	775.18494	-929.17810	
3535	35.340	-805.27783	35.83640	-645.60071	762.26593	33.33485	-621.07678	-736.69812	-4.53302	492.32928	670.33020	-9.69934	594.25299	-17.67894	774.64636	-929.63055	
3536	35.350	-804.49805	35.49861	-645.65106	763.01123	32.99278	-621.22003	-735.55969	-4.30059	492.14859	671.01416	-9.44162	594.19012	-16.76705	774.09167	-929.97601	
3537	35.360	-803.62976	35.17937	-645.82269	763.94501	32.67113	-621.32239	-734.92511	-4.16955	492.00974	671.96448	-9.24325	594.18500	-15.83576	773.63440	-930.37860	
3538	35.370	-802.73499	34.84821	-645.78369	764.77832	32.37405	-621.44214	-733.99805	-3.85108	492.00171	673.01733	-8.82603	594.06476	-14.85311	773.27667	-930.99341	
3539	35.380	-801.79584	34.56075	-645.94385	765.56732	32.11267	-621.56030	-733.12103	-3.55418	491.90448	673.90948	-8.44834	594.01538	-13.93363	772.83984	-931.46942	
3540	35.390	-801.05109	34.27677	-646.16956	766.37823	31.75430	-621.66974	-732.32581	-3.29623	491.94962	674.72247	-8.27650	594.03833	-13.01232	772.27997	-932.03571	
3541	35.400	-800.25494	33.96503	-646.23761	767.34650	31.33074	-621.79968	-731.43250	-3.11908	491.85855	675.48041	-8.10370	594.05194	-12.15493	771.71741	-932.52649	
3542	35.410	-799.26453	33.48014	-646.16248	768.20190	31.03466	-621.78711	-730.53717	-2.77705	491.79739	676.45612	-7.74829	593.97601	-11.35338	771.20032	-933.02679	
3543	35.420	-798.11426	33.13056	-646.33685	769.08911	30.62426	-621.85266	-729.71283	-2.52430	491.77872	677.28357	-7.25475	593.91345	-10.56209	770.70544	-933.56769	
3544	35.430	-797.47626	33.06858	-646.44897	770.07086	30.26415	-621.93549	-728.68475	-2.33242	491.61737	678.08289	-6.95555	593.83282	-9.73437	770.19794	-934.13617	
3545	35.440	-796.45148	32.62688	-646.67889	770.96765	29.89260	-621.93402	-727.82788	-2.13726	491.62558	679.03351	-6.64839	593.89563	-8.87116	769.67291	-934.65442	
3546	35.450	-795.70935	32.22089	-646.60559	771.75897	29.42282	-622.11237	-727.01660	-1.84648	491.59784	680.01001	-6.40035	593.85767	-8.06432	769.16217	-934.98297	
3547	35.460	-794.73920	31.58469	-646.66180	772.63068	29.06168	-622.30615	-725.91290	-1.67162	491.60126	680.98926	-5.87218	593.80841	-7.11999	768.50269	-935.48206	
3548	35.470	-793.76428	31.23712	-646.86151	773.62781	28.75116	-622.40497	-725.14148	-1.47444	491.47256	681.94086	-5.43140	593.97107	-6.03836	767.89020	-935.94550	
